Motion_sv03_j
version=1
nRows=16
nColumns=43
inDegrees=yes
endheader
time	pelvis_tilt	pelvis_list	pelvis_rotation	pelvis_tx	pelvis_ty	pelvis_tz	hip_flexion_r	hip_adduction_r	hip_rotation_r	knee_angle_r	ankle_angle_r	subtalar_angle_r	mtp_angle_r	hip_flexion_l	hip_adduction_l	hip_rotation_l	knee_angle_l	ankle_angle_l	subtalar_angle_l	mtp_angle_l	lumbar_extension	lumbar_bending	lumbar_rotation	neck_flexion	neck_lateral_bending	neck_rotation	arm_flex_r	arm_add_r	arm_rot_r	elbow_flex_r	pro_sup_r	wrist_flex_r	wrist_dev_r	hand_finger_flex_r	arm_flex_l	arm_add_l	arm_rot_l	elbow_flex_l	pro_sup_l	wrist_flex_l	wrist_dev_l	hand_finger_flex_l
      1.92750000	     -5.64665417	    -30.33560291	    -83.94057628	      0.06279625	      0.97928438	     -0.41832725	     -1.64503431	     -3.29931092	    -10.49606307	    -17.25690795	     -7.99537056	      2.53348952	      1.63382608	    -42.16546385	     -6.79662727	    -38.11877441	     -0.65562917	     11.92715411	     39.02320901	      8.83798071	    -45.45384492	      3.76237865	      2.80742791	    -19.67695386	     -2.77636135	     -9.32804847	    -17.17804283	     -8.96992420	    -23.64165461	     66.96182890	     97.28506553	      1.99906985	     -5.39315308	    -11.59496377	    -26.59452054	     -8.21432230	    -20.52311234	    114.69310448	    131.98046626	    -21.09729009	     -7.50785942	      5.80663078
      1.93000000	     -5.65474071	    -30.34643234	    -83.94977598	      0.06295483	      0.97930969	     -0.41880437	     -1.67022860	     -3.31947087	    -10.49604183	    -17.26072107	     -7.99548906	      2.53233355	      1.63547000	    -42.14165936	     -6.79161422	    -38.11971117	     -0.64880650	     11.92968665	     39.02414563	      8.83722919	    -45.44765787	      3.77648297	      2.81882843	    -19.68009437	     -2.77628403	     -9.32931903	    -17.17894000	     -8.95412068	    -23.62492838	     66.95559597	     97.28488284	      2.00219885	     -5.38840697	    -11.59229571	    -26.59782636	     -8.22787228	    -20.52263820	    114.69354855	    131.98602017	    -21.09772878	     -7.50717871	      5.80712358
      1.93250000	     -5.66633137	    -30.35462645	    -83.96078029	      0.06312069	      0.97932861	     -0.41923158	     -1.69960723	     -3.34129269	    -10.49788498	    -17.26273884	     -7.99631992	      2.53054741	      1.63768224	    -42.12186179	     -6.78601315	    -38.12080754	     -0.64652820	     11.93284075	     39.02507449	      8.83615299	    -45.44081177	      3.78533529	      2.82833162	    -19.68287049	     -2.77695126	     -9.33281607	    -17.18470615	     -8.94797426	    -23.60718298	     66.94233646	     97.28451303	      2.00548126	     -5.37989104	    -11.58904999	    -26.61079070	     -8.25314707	    -20.52052211	    114.68151134	    131.99629962	    -21.09595749	     -7.50426382	      5.80849296
      1.93500000	     -5.67964651	    -30.36855180	    -83.97553628	      0.06339345	      0.97926362	     -0.41959886	     -1.73062331	     -3.36475814	    -10.50136248	    -17.26462376	     -7.99781365	      2.52803795	      1.63979006	    -42.10291442	     -6.78001653	    -38.12168356	     -0.64696609	     11.93574913	     39.02581748	      8.83502068	    -45.42915651	      3.79033123	      2.83592710	    -19.68404512	     -2.77832544	     -9.33803012	    -17.19389220	     -8.94693699	    -23.58872285	     66.92504927	     97.28436302	      2.00906851	     -5.36975476	    -11.58583941	    -26.62877050	     -8.28295926	    -20.51759788	    114.66112278	    132.00893508	    -21.09252288	     -7.50018459	      5.81033304
      1.93750000	     -5.78705088	    -30.55293185	    -83.95232359	      0.06371484	      0.97968835	     -0.41947923	     -2.14984706	     -3.27368120	    -10.91079167	    -16.94204673	     -8.17134386	      2.71170997	      2.13468119	    -42.33965670	     -6.89725547	    -38.29382800	     -0.63528649	     11.96595152	     39.20710346	      8.52210664	    -45.44924589	      3.95038342	      2.91974385	    -20.02543598	     -2.87698328	     -9.79746970	    -17.26094739	     -9.05767402	    -23.40007921	     66.85494078	     96.85172668	      1.71494994	     -4.80129059	    -11.26169952	    -26.60313817	     -8.56038955	    -20.26543168	    114.45875637	    133.95749295	    -21.46897593	     -7.01634469	      5.82970794
      1.94000000	     -5.79891540	    -30.56288326	    -83.96211106	      0.06387923	      0.97966484	     -0.41991119	     -2.16858363	     -3.29327616	    -10.91052625	    -16.94899496	     -8.17175819	      2.70997473	      2.13557281	    -42.32106721	     -6.89500837	    -38.29406026	     -0.63199345	     11.96629943	     39.20731789	      8.52148783	    -45.44381011	      3.95567579	      2.92306911	    -20.02395566	     -2.87573648	     -9.79709702	    -17.26580030	     -9.05220241	    -23.39451975	     66.85081128	     96.85192201	      1.71617676	     -4.80083875	    -11.26052590	    -26.60951587	     -8.56289089	    -20.26590750	    114.45523576	    133.95835973	    -21.46836152	     -7.01526390	      5.83050663
      1.94250000	     -5.80946253	    -30.57338232	    -83.97348583	      0.06406036	      0.97963827	     -0.42033192	     -2.18937707	     -3.31645156	    -10.91167711	    -16.95645566	     -8.17273350	      2.70764316	      2.13650053	    -42.30316162	     -6.88824894	    -38.29411479	     -0.63210555	     11.96659526	     39.20752664	      8.52079517	    -45.43695225	      3.96572840	      2.93076960	    -20.02142134	     -2.87411391	     -9.79764462	    -17.27296499	     -9.04671162	    -23.38423514	     66.84289754	     96.85273504	      1.71888333	     -4.79923279	    -11.25875824	    -26.61983648	     -8.56751718	    -20.26736484	    114.44603339	    133.96033677	    -21.46680417	     -7.01316487	      5.83166895
      1.94500000	     -5.77104001	    -30.60748903	    -84.05273889	      0.06436627	      0.97976260	     -0.42057302	     -2.25710639	     -3.41459494	    -11.01360015	    -16.93150666	     -8.20553087	      2.70036151	      2.17272018	    -42.30753444	     -6.78733954	    -38.37195470	     -0.74494674	     11.98551575	     39.17228861	      8.49869810	    -45.41717326	      3.90881603	      2.97197360	    -20.06932443	     -2.89511352	     -9.83910068	    -17.27398169	     -9.18085157	    -23.20002308	     66.71885556	     96.87450858	      1.78313485	     -4.77780759	    -11.20307842	    -26.64707446	     -8.63852285	    -20.19377725	    114.32694932	    134.06440409	    -21.41458381	     -7.00090229	      5.86605523
      1.94750000	     -5.78182149	    -30.61998976	    -84.06199477	      0.06454169	      0.97973225	     -0.42100446	     -2.27487710	     -3.43390171	    -11.01365789	    -16.93845467	     -8.20733517	      2.69990574	      2.17348355	    -42.29090644	     -6.78390367	    -38.37236567	     -0.74068716	     11.98606433	     39.17227732	      8.49809810	    -45.40731411	      3.91507260	      2.97585247	    -20.06856907	     -2.89327556	     -9.84086221	    -17.27770251	     -9.17295971	    -23.19427961	     66.71479085	     96.87483409	      1.78456025	     -4.77706891	    -11.20185780	    -26.65145479	     -8.64114627	    -20.19885820	    114.32260741	    134.06694346	    -21.41462346	     -6.99939146	      5.86655048
      1.95000000	     -5.79089435	    -30.63014844	    -84.07658587	      0.06472691	      0.97971921	     -0.42141323	     -2.29766038	     -3.46509593	    -11.01709419	    -16.94702494	     -8.21173188	      2.69912168	      2.17474137	    -42.27590491	     -6.77214014	    -38.37313310	     -0.74256945	     11.98716632	     39.17191047	      8.49709903	    -45.39730374	      3.93202240	      2.98765916	    -20.06708839	     -2.88887992	     -9.84576241	    -17.28407308	     -9.16557130	    -23.17980248	     66.70350165	     96.87603775	      1.78905266	     -4.77391580	    -11.19906657	    -26.66542213	     -8.64757258	    -20.20733463	    114.30515170	    134.07322092	    -21.41265128	     -6.99513559	      5.86802976
      1.95250000	     -5.78675801	    -30.65621221	    -84.11789450	      0.06507980	      0.97972781	     -0.42161604	     -2.32841420	     -3.52011715	    -11.05353736	    -16.95790781	     -8.23946624	      2.70248292	      2.18054301	    -42.28928361	     -6.71935366	    -38.38285945	     -0.78763812	     11.99397795	     39.16508807	      8.49266099	    -45.36609960	      3.93926531	      3.00683164	    -20.06561780	     -2.87655219	     -9.87676849	    -17.30456231	     -9.21679592	    -23.12972325	     66.64941548	     96.88191734	      1.81070823	     -4.75457976	    -11.18570735	    -26.73037983	     -8.67543404	    -20.21786706	    114.19913006	    134.11327227	    -21.39153864	     -6.97583051	      5.87801485
      1.95500000	     -5.79886492	    -30.66778000	    -84.13548826	      0.06527751	      0.97968307	     -0.42201873	     -2.34980155	     -3.54645818	    -11.05825811	    -16.96513499	     -8.24376803	      2.70232661	      2.18141182	    -42.27194998	     -6.72061240	    -38.38587415	     -0.78242743	     11.99603158	     39.16343118	      8.49202410	    -45.35699006	      3.93720303	      3.00672697	    -20.06818032	     -2.87680246	     -9.88156155	    -17.30581562	     -9.21404193	    -23.11688483	     66.64313442	     96.88255702	      1.81516454	     -4.75154869	    -11.18359764	    -26.73103693	     -8.67879838	    -20.21555708	    114.19421112	    134.12008115	    -21.38894443	     -6.97583172	      5.87925018
      1.95750000	     -5.69111882	    -30.71632021	    -84.23784185	      0.06552504	      0.97986902	     -0.42223517	     -2.42263379	     -3.73994167	    -11.27062601	    -16.92248096	     -8.50428474	      2.95523691	      2.29839736	    -42.32254195	     -6.49378596	    -38.60213798	     -0.83497051	     12.04518831	     39.03791619	      8.41953926	    -45.30851863	      3.77191534	      2.97143502	    -20.38659605	     -2.85151552	    -10.20183463	    -17.19879351	     -9.34004667	    -22.90263196	     66.42051754	     96.82953584	      1.93692118	     -4.59315692	    -11.10290863	    -26.79114991	     -8.67039974	    -20.28185994	    114.09485109	    134.72466820	    -21.30405968	     -6.97160423	      5.94923259
      1.96000000	     -5.70441985	    -30.72957643	    -84.24874941	      0.06575894	      0.97982720	     -0.42263111	     -2.43938136	     -3.76652120	    -11.27066528	    -16.92930050	     -8.50292333	      2.95438602	      2.30031832	    -42.30381119	     -6.49385972	    -38.59773957	     -0.82998511	     12.04434349	     39.04009336	      8.41844703	    -45.30345806	      3.78087545	      2.98239775	    -20.38234756	     -2.85203443	    -10.20152017	    -17.20598684	     -9.33617662	    -22.89530568	     66.41471562	     96.82920819	      1.93880870	     -4.59065368	    -11.10226661	    -26.80062004	     -8.67526797	    -20.28626389	    114.08746148	    134.73023048	    -21.30284759	     -6.96973592	      5.95021779
      1.96250000	     -5.71548179	    -30.74213489	    -84.26270496	      0.06594000	      0.97984713	     -0.42299853	     -2.45605764	     -3.79762123	    -11.27301772	    -16.93833563	     -8.50328714	      2.95358864	      2.30304576	    -42.29460904	     -6.48506030	    -38.59044399	     -0.83500779	     12.04306717	     39.04337022	      8.41682233	    -45.29735879	      3.79713659	      3.00057128	    -20.37484495	     -2.85119993	    -10.20297878	    -17.21739553	     -9.33996715	    -22.88725620	     66.39999994	     96.82863996	      1.94138369	     -4.58445628	    -11.10170574	    -26.82686018	     -8.68712989	    -20.29344232	    114.06453791	    134.74059119	    -21.29882114	     -6.96519333	      5.95254791
      1.96500000	     -5.72200315	    -30.76687957	    -84.30334745	      0.06626671	      0.97981632	     -0.42312933	     -2.48399122	     -3.83729337	    -11.28709367	    -16.96392121	     -8.51244490	      2.95578138	      2.31110116	    -42.31705165	     -6.45288817	    -38.57191118	     -0.87340552	     12.04007763	     39.05050694	      8.41183760	    -45.27496875	      3.81101443	      3.02898228	    -20.35466858	     -2.85244014	    -10.21283904	    -17.24714565	     -9.38390925	    -22.87853842	     66.34810685	     96.82670610	      1.94680876	     -4.56124935	    -11.10143676	    -26.91071242	     -8.72729737	    -20.29891367	    113.98382113	    134.77933742	    -21.28003922	     -6.95376781	      5.96175980
